<svg width="300" height="201" viewBox="0 0 300 201" fill="none" xmlns="http://www.w3.org/2000/svg">
<g clip-path="url(#clip0)">
<path d="M80.6799 200.756H104.061C108.342 198.776 111.306 194.651 111.47 189.865L112.294 154.056C112.458 147.291 106.695 141.68 99.4505 141.515L86.2782 142.505C79.198 142.34 74.0938 147.126 74.0938 153.891L76.3989 189.865C76.0696 194.651 77.2222 198.776 80.6799 200.756Z" fill="#797673"/>
<path d="M87.9263 162.307C89.0788 164.617 89.7375 166.598 90.0668 168.413C90.3961 170.723 90.0668 174.849 89.2435 180.789C88.5849 185.905 88.9142 190.525 90.3961 194.816C91.0547 196.961 91.878 198.941 92.8659 200.756H164.984C166.302 197.786 167.125 194.32 167.454 190.69C167.948 184.584 168.607 180.459 169.43 178.479C170.089 176.829 171.077 175.179 172.888 173.198C174.864 170.888 176.51 169.238 177.498 167.918C181.45 163.297 183.261 159.007 183.096 154.882C182.932 150.756 181.285 146.466 178.321 142.175C174.864 137.225 172.888 133.594 172.394 131.614C171.571 128.644 171.9 125.014 173.217 120.393C174.534 115.773 174.699 111.482 173.876 107.522C172.888 103.561 170.747 99.931 167.29 96.3007C164.326 93.1653 162.679 90.195 162.679 87.7198C162.679 84.5845 162.679 81.2841 162.844 77.9838L163.173 73.8584C163.338 69.0729 162.021 64.6175 159.222 60.8221C155.764 56.0366 150.495 53.5614 143.909 53.2313C136.17 52.0762 130.242 53.2313 126.291 56.6967C122.833 59.667 120.692 63.4624 119.705 68.2478L119.046 72.3733C118.552 75.6736 117.893 78.8089 117.07 81.9442C116.576 84.4195 114.436 86.7297 110.813 89.0399C106.697 91.6802 103.568 94.8155 101.922 98.2808C100.111 101.911 99.2874 106.037 99.6167 110.822C99.7814 115.608 99.2874 119.238 97.9702 121.878C96.9822 123.693 94.3478 126.664 89.9021 130.624C86.1151 134.089 83.6452 137.885 82.4927 141.845C81.5047 145.806 82.328 150.426 85.1271 155.872C85.2918 157.357 86.4444 159.502 87.9263 162.307Z" fill="url(#paint0_linear)"/>
<path d="M246.158 115.773L251.427 119.898L250.933 113.297L246.158 115.773Z" fill="#E46347"/>
<path d="M252.579 92.6703C248.628 91.5152 245.17 92.1752 242.041 94.3204C238.913 96.6307 237.266 99.766 236.937 103.726C236.772 105.872 237.266 108.017 238.419 109.832C240.395 113.297 243.359 115.443 247.146 116.103C250.439 116.598 253.403 115.938 256.202 113.957C258.836 111.977 260.483 109.502 261.141 106.202C261.8 102.406 260.812 98.9409 258.013 95.9706C256.366 94.4855 254.555 93.3303 252.579 92.6703Z" fill="#E46347"/>
<path d="M245.006 105.047C245.335 104.716 245.335 104.551 245.5 104.056C245.5 103.726 245.335 103.396 245.17 103.066C245.006 102.736 244.676 102.571 244.347 102.571C244.018 102.571 243.689 102.736 243.359 102.901C243.03 103.066 242.865 103.561 242.865 103.891C242.865 104.221 243.03 104.551 243.195 104.881C243.359 105.212 243.689 105.377 244.018 105.377C244.347 105.377 244.676 105.212 245.006 105.047ZM247.476 104.221C247.476 104.551 247.64 104.881 247.805 105.212C247.97 105.542 248.299 105.707 248.628 105.707C248.957 105.707 249.287 105.542 249.616 105.377C249.945 105.212 250.11 104.716 250.11 104.386C250.11 104.056 249.945 103.726 249.781 103.396C249.616 103.066 249.287 102.901 248.957 102.901C248.628 102.901 248.299 103.066 247.97 103.231C247.64 103.396 247.476 103.726 247.476 104.221ZM252.086 104.386C252.086 104.716 252.251 105.047 252.415 105.377C252.58 105.707 252.909 105.872 253.238 105.872C253.568 105.872 253.897 105.707 254.226 105.542C254.556 105.377 254.72 104.881 254.72 104.551C254.72 104.221 254.556 103.891 254.391 103.561C254.226 103.231 253.897 103.066 253.568 103.066C253.238 103.066 252.909 103.231 252.58 103.396C252.251 103.726 252.086 104.056 252.086 104.386Z" fill="white"/>
<path d="M228.458 104.056L222.695 112.307L222.365 102.241L228.458 104.056Z" fill="#E1DFDD"/>
<path d="M229.857 105.377H240.394C241.547 105.377 242.37 104.552 242.37 103.396V80.1291C242.37 78.9739 241.547 78.1489 240.394 78.1489H213.062C211.909 78.1489 211.086 78.9739 211.086 80.1291V103.396C211.086 104.552 211.909 105.377 213.062 105.377H223.6H229.857Z" fill="#E1DFDD"/>
<path d="M230.68 91.5152C230.35 91.8452 230.186 92.1752 230.186 92.5052C230.186 92.8353 230.35 93.3303 230.68 93.4953C231.009 93.8254 231.338 93.9904 231.668 93.9904C231.997 93.9904 232.491 93.8254 232.656 93.4953C232.82 93.1653 233.149 92.8353 233.149 92.5052C233.149 92.1752 232.985 91.6802 232.656 91.5152C232.326 91.1851 231.997 91.0201 231.668 91.0201C231.338 91.0201 231.009 91.1851 230.68 91.5152ZM222.282 93.4953C222.612 93.1653 222.776 92.8353 222.776 92.5052C222.776 92.1752 222.612 91.6802 222.282 91.5152C221.953 91.1851 221.624 91.0201 221.294 91.0201C220.965 91.0201 220.471 91.1851 220.306 91.5152C219.977 91.8452 219.812 92.1752 219.812 92.5052C219.812 92.8353 219.977 93.3303 220.306 93.4953C220.636 93.8254 220.965 93.9904 221.294 93.9904C221.624 93.9904 221.953 93.8254 222.282 93.4953ZM227.551 91.5152C227.222 91.1851 226.893 91.0201 226.563 91.0201C226.234 91.0201 225.74 91.1851 225.575 91.5152C225.246 91.8452 225.081 92.1752 225.081 92.5052C225.081 92.8353 225.246 93.3303 225.575 93.4953C225.905 93.8254 226.234 93.9904 226.563 93.9904C226.893 93.9904 227.387 93.8254 227.551 93.4953C227.716 93.1653 228.045 92.8353 228.045 92.5052C228.045 92.1752 227.881 91.6802 227.551 91.5152Z" fill="#C8C6C4"/>
<path d="M203.349 149.931C204.501 150.921 204.172 151.416 204.172 151.416C204.172 151.416 206.971 151.746 206.971 152.406C206.807 153.726 203.02 154.221 199.891 154.221C196.433 154.551 193.964 155.047 192.976 156.202C191.494 158.347 186.883 161.482 184.908 160.162C184.578 159.997 179.968 163.132 177.498 163.462C174.37 163.957 174.37 158.347 177.334 156.367C180.133 154.386 191.658 148.446 194.458 147.786C196.927 147.456 202.69 149.436 203.349 149.931Z" fill="#E2C5AA"/>
<path d="M181.284 154.221C174.204 155.707 167.124 156.532 161.361 151.746C157.08 148.281 152.634 123.528 152.634 123.528C152.634 123.528 151.152 114.453 140.614 117.753C132.382 120.393 138.145 132.934 138.145 132.934C138.145 132.934 142.426 147.951 144.401 155.212C146.377 162.472 152.305 169.238 160.208 168.908C169.923 168.413 174.862 165.608 182.931 161.647L181.284 154.221Z" fill="url(#paint1_radial)"/>
<path d="M132.3 108.842C134.935 108.842 136.91 109.007 138.886 108.842C139.71 108.842 143.991 107.687 143.332 107.192C141.521 105.872 142.509 102.736 143.003 98.9409L145.472 89.2049L132.959 86.8947L131.971 94.8155C131.312 99.931 127.525 105.377 124.891 106.532C126.208 107.852 128.842 108.677 132.3 108.842Z" fill="url(#paint2_radial)"/>
<path d="M148.436 63.5449C144.32 62.7198 140.698 63.5449 137.24 66.0202C133.782 68.4954 131.806 71.7957 131.148 75.9211L129.501 86.4822C128.842 90.6076 129.83 94.403 132.136 98.0334C134.605 101.499 137.734 103.644 141.85 104.469C145.967 105.294 149.589 104.469 153.047 101.994C156.34 99.6835 158.316 96.3832 158.974 92.2578L160.621 81.6967C161.279 77.5713 160.456 73.7759 157.986 70.1456C155.846 66.3502 152.717 64.205 148.436 63.5449Z" fill="#F9DDBF"/>
<path d="M131.971 78.8915L130.818 78.7264C129.83 78.5614 128.842 78.7265 128.019 79.3865C127.196 80.0466 126.702 81.0367 126.537 82.0268C126.372 83.1819 126.537 84.172 127.196 85.1621C127.854 86.1522 128.678 86.6472 129.666 86.8123L130.653 86.9773L131.971 78.8915Z" fill="#F9DDBF"/>
<path d="M219.484 200.756C218.166 198.116 216.52 194.981 214.709 192.505C209.604 185.575 192.974 186.4 174.862 186.4C154.61 186.4 152.14 175.014 149.835 173.033C144.895 168.908 131.558 163.462 122.008 166.268C111.141 169.403 107.354 176.334 105.214 185.08C103.896 189.865 103.402 195.476 103.402 200.921H219.484V200.756Z" fill="#C84936"/>
<path d="M144.567 107.852C141.768 106.697 139.628 107.027 134.853 106.202C131.066 106.037 125.961 106.202 122.998 106.697C117.893 107.192 113.283 113.792 112.295 116.268C109.331 123.858 109.331 132.604 109.496 140.03C110.319 150.591 110.813 157.027 110.319 160.492C109.331 167.918 107.356 179.304 105.709 185.575C108.179 187.225 151.812 189.205 154.447 188.215C152.141 174.849 145.391 165.443 145.391 159.172C146.379 151.251 148.519 148.446 150.66 144.32C152.471 139.37 154.282 132.769 153.129 124.684C152.471 117.588 148.684 109.172 144.567 107.852Z" fill="url(#paint3_radial)"/>
<path d="M176.838 161.482C181.284 161.812 182.93 161.977 185.894 162.637C190.34 163.792 198.079 166.103 198.408 164.783C198.573 164.287 195.938 162.307 195.938 162.307C195.938 162.307 198.408 163.297 198.573 162.637C198.737 161.977 194.292 159.007 193.139 157.522C194.621 157.687 198.737 158.017 198.737 156.862C198.737 156.037 193.468 155.542 189.846 154.552C179.637 153.561 177.003 153.891 173.874 154.387C170.746 154.882 169.264 159.997 172.393 160.987C173.71 161.647 175.521 161.482 176.838 161.482Z" fill="#F9DDBF"/>
<path d="M133.535 149.766C130.406 147.126 129.089 135.575 128.76 129.964C128.76 129.469 128.101 117.918 119.868 117.423C111.636 116.928 110.318 127.489 110.318 127.489C110.318 127.489 110.812 144.981 112.953 152.241C115.093 159.502 118.716 166.433 131.229 168.248C148.189 170.723 174.533 161.482 174.533 161.482L175.027 154.056C175.027 154.221 146.048 159.997 133.535 149.766Z" fill="#C84936"/>
<path d="M156.75 67.0928C156.75 67.0928 154.445 65.1126 151.646 69.238C148.847 73.3634 147.2 79.304 138.638 79.139C130.076 78.974 126.289 76.9938 126.289 76.9938L132.381 57.8518C132.546 57.8518 149.011 56.0367 156.75 67.0928Z" fill="#E0BB95"/>
<path d="M125.795 89.8651C125.795 87.3898 127.771 85.4096 130.241 85.4096C132.71 85.4096 134.686 87.3898 134.686 89.8651C134.686 92.3403 132.71 94.3205 130.241 94.3205C127.771 94.3205 125.795 92.3403 125.795 89.8651ZM127.112 89.8651C127.112 91.5152 128.429 93.0004 130.241 93.0004C131.887 93.0004 133.369 91.6802 133.369 89.8651C133.369 88.2149 132.052 86.7297 130.241 86.7297C128.429 86.7297 127.112 88.2149 127.112 89.8651Z" fill="#ED6C47"/>
<path d="M196.762 170.558H250.933L261.635 139.535C261.965 138.38 261.142 137.06 259.824 137.06H209.934C208.946 137.06 207.958 137.72 207.629 138.71L196.762 170.558Z" fill="#CECDCC"/>
<path d="M174.699 174.188H247.64C248.793 174.188 249.616 173.363 249.616 172.208C249.616 171.053 248.793 170.228 247.64 170.228H174.699C173.546 170.228 172.723 171.053 172.723 172.208C172.723 173.198 173.546 174.188 174.699 174.188Z" fill="#C4BEBB"/>
<path d="M23.3803 200.756L23.8742 182.934H12.6777L12.8424 200.756H23.3803Z" fill="url(#paint4_linear)"/>
<path d="M289.298 200.756L289.792 182.934H278.596L278.76 200.756H289.298Z" fill="url(#paint5_linear)"/>
<path d="M300 174.188H0V185.74H300V174.188Z" fill="#E1DFDD"/>
<path d="M144.237 27.8188V14.4525C144.237 13.9574 144.072 13.4624 143.743 13.1323C143.414 12.8023 142.92 12.4723 142.261 12.4723H121.021C120.362 12.4723 119.868 12.8023 119.539 13.1323C119.21 13.4624 119.045 13.9574 119.045 14.4525V27.8188C119.045 28.9739 119.868 29.799 121.021 29.799H142.261C143.414 29.799 144.237 28.9739 144.237 27.8188Z" fill="#FBDFD0"/>
<path d="M120.033 13.9574L130.077 23.3633C130.9 24.0234 132.217 24.0234 132.876 23.3633L143.743 13.1323C143.414 12.8023 142.92 12.4723 142.261 12.4723H121.021C120.362 12.4723 119.868 12.8023 119.539 13.1323C119.539 13.4624 119.704 13.7924 120.033 13.9574Z" fill="#F7937C"/>
<path d="M172.558 1.58119C172.064 1.08614 171.405 0.756104 170.747 0.756104L142.756 0.92112C141.932 0.92112 141.274 1.25115 140.78 1.91122C140.45 2.40627 140.121 2.90132 140.121 3.56138L140.286 21.0531C140.286 22.5383 141.438 23.6934 142.92 23.6934L170.911 23.5284C172.393 23.5284 173.546 22.3733 173.546 20.8881L173.381 3.39637C173.381 2.57129 173.052 1.91122 172.558 1.58119Z" fill="#E1DFDD"/>
<path d="M141.273 2.7363L154.61 15.1125C155.598 16.1026 157.409 16.1026 158.397 15.1125L172.558 1.58119C172.064 1.08614 171.405 0.756104 170.746 0.756104L142.755 0.92112C141.932 0.92112 141.273 1.25115 140.779 1.91122C140.779 2.07624 141.109 2.40627 141.273 2.7363Z" fill="#CECDCC"/>
<path d="M44.4566 126.334L27.6619 126.004C22.2283 125.839 17.9473 121.383 17.9473 115.938L18.4412 91.8452C18.6059 86.3997 23.0515 82.1093 28.4851 82.1093L45.2799 82.4393C50.7135 82.6043 54.9945 87.0598 54.9945 92.5053L54.5005 116.598C54.5005 122.043 49.8902 126.334 44.4566 126.334Z" fill="#E1DFDD"/>
<path d="M42.9756 85.0795L31.2852 84.7495L31.4498 79.964C31.4498 78.1488 32.9317 76.6637 34.7429 76.6637L39.8472 76.8287C41.6584 76.8287 43.1403 78.3139 43.1403 80.129L42.9756 85.0795Z" fill="#E46347"/>
<path d="M41.986 89.535L31.7775 89.37C29.9663 89.37 28.4844 87.8849 28.4844 86.0697L28.649 82.1093L45.4438 82.4393L45.2791 86.3997C45.4438 88.0499 43.7972 89.535 41.986 89.535Z" fill="#C84936"/>
<path d="M44.6854 98.1653L15.377 98.0669L15.2501 136.021L44.5586 136.119L44.6854 98.1653Z" fill="#F3F2F1"/>
<path d="M23.2376 118.09L19.6152 118.077L19.5712 130.123L23.1936 130.136L23.2376 118.09Z" fill="#E1DFDD"/>
<path d="M34.429 121.886L30.8066 121.872L30.7759 130.288L34.3983 130.302L34.429 121.886Z" fill="#E1DFDD"/>
<path d="M29.0072 114.46L25.3848 114.447L25.3269 130.288L28.9493 130.301L29.0072 114.46Z" fill="#F7937C"/>
<path d="M39.8841 110.169L36.2617 110.156L36.1888 130.123L39.8112 130.136L39.8841 110.169Z" fill="#C84936"/>
</g>
<defs>
<linearGradient id="paint0_linear" x1="125.253" y1="208.067" x2="135.451" y2="124.623" gradientUnits="userSpaceOnUse">
<stop stop-color="#BB946C"/>
<stop offset="1" stop-color="#DFBC97"/>
</linearGradient>
<radialGradient id="paint1_radial" cx="0" cy="0" r="1" gradientUnits="userSpaceOnUse" gradientTransform="translate(139.113 148.3) rotate(0.0843456) scale(40.2042 44.251)">
<stop offset="0.3456" stop-color="#A22B00"/>
<stop offset="0.5221" stop-color="#A9310A"/>
<stop offset="0.8234" stop-color="#BC4025"/>
<stop offset="0.9779" stop-color="#C84936"/>
</radialGradient>
<radialGradient id="paint2_radial" cx="0" cy="0" r="1" gradientUnits="userSpaceOnUse" gradientTransform="translate(146.454 90.954) scale(16.0116 17.6233)">
<stop offset="0.4733" stop-color="#9A6541"/>
<stop offset="0.5489" stop-color="#9F6B47"/>
<stop offset="0.6536" stop-color="#AC7C59"/>
<stop offset="0.7753" stop-color="#C29877"/>
<stop offset="0.9088" stop-color="#E1BF9F"/>
<stop offset="0.9994" stop-color="#F9DDBF"/>
</radialGradient>
<radialGradient id="paint3_radial" cx="0" cy="0" r="1" gradientUnits="userSpaceOnUse" gradientTransform="translate(126.088 150.702) scale(26.4491 29.1114)">
<stop offset="0.1336" stop-color="#A22B00"/>
<stop offset="0.9903" stop-color="#C84936"/>
</radialGradient>
<linearGradient id="paint4_linear" x1="18.3017" y1="184.637" x2="18.3017" y2="195.946" gradientUnits="userSpaceOnUse">
<stop stop-color="#CECDCC"/>
<stop offset="1" stop-color="#E0E0E0"/>
</linearGradient>
<linearGradient id="paint5_linear" x1="284.229" y1="184.637" x2="284.229" y2="195.946" gradientUnits="userSpaceOnUse">
<stop stop-color="#CECDCC"/>
<stop offset="1" stop-color="#E0E0E0"/>
</linearGradient>
<clipPath id="clip0">
<rect width="300" height="200" fill="white" transform="translate(0 0.756104)"/>
</clipPath>
</defs>
</svg>
